<svg width="24" height="25" viewBox="0 0 24 25" fill="none" xmlns="http://www.w3.org/2000/svg">
<path d="M19.5 14.451V11.826C19.5 9.96209 17.989 8.45105 16.125 8.45105H14.625C14.0037 8.45105 13.5 7.94737 13.5 7.32605V5.82605C13.5 3.96209 11.989 2.45105 10.125 2.45105H8.25M12 11.451V17.451M15 14.451H9M10.5 2.45105H5.625C5.00368 2.45105 4.5 2.95473 4.5 3.57605V20.826C4.5 21.4474 5.00368 21.951 5.625 21.951H18.375C18.9963 21.951 19.5 21.4474 19.5 20.826V11.451C19.5 6.48049 15.4706 2.45105 10.5 2.45105Z" stroke="#737378" stroke-width="1.5" stroke-linecap="round" stroke-linejoin="round"/>
</svg>
