<svg width="24" height="25" viewBox="0 0 24 25" fill="none" xmlns="http://www.w3.org/2000/svg">
<path d="M16.8617 4.68772L18.5492 3.00022C19.2814 2.26799 20.4686 2.26799 21.2008 3.00022C21.9331 3.73246 21.9331 4.91964 21.2008 5.65188L10.5822 16.2705C10.0535 16.7992 9.40144 17.1878 8.68489 17.4013L6 18.201L6.79978 15.5162C7.01323 14.7996 7.40185 14.1476 7.93052 13.6189L16.8617 4.68772ZM16.8617 4.68772L19.5 7.32604M18 14.201V18.951C18 20.1937 16.9926 21.201 15.75 21.201H5.25C4.00736 21.201 3 20.1937 3 18.951V8.45104C3 7.2084 4.00736 6.20104 5.25 6.20104H10" stroke="#737378" stroke-width="1.5" stroke-linecap="round" stroke-linejoin="round"/>
</svg>
